<svg width="20" height="22" viewBox="0 0 20 22" fill="none" xmlns="http://www.w3.org/2000/svg">
<circle cx="10" cy="11" r="10" fill="#EFEFF5"/>
<path d="M10 19.4736C11.1566 19.4736 12.244 19.2523 13.2622 18.8096C14.286 18.3669 15.188 17.7554 15.9683 16.9751C16.7485 16.1948 17.36 15.2956 17.8027 14.2773C18.2454 13.2536 18.4668 12.1634 18.4668 11.0068C18.4668 9.85026 18.2454 8.76286 17.8027 7.74463C17.36 6.72087 16.7485 5.81885 15.9683 5.03857C15.188 4.2583 14.286 3.64681 13.2622 3.2041C12.2384 2.76139 11.1483 2.54004 9.9917 2.54004C8.83512 2.54004 7.74495 2.76139 6.72119 3.2041C5.70296 3.64681 4.80371 4.2583 4.02344 5.03857C3.2487 5.81885 2.63997 6.72087 2.19727 7.74463C1.75456 8.76286 1.5332 9.85026 1.5332 11.0068C1.5332 12.1634 1.75456 13.2536 2.19727 14.2773C2.63997 15.2956 3.25146 16.1948 4.03174 16.9751C4.81201 17.7554 5.71126 18.3669 6.72949 18.8096C7.75326 19.2523 8.84342 19.4736 10 19.4736ZM7.21094 14.4932C7.02279 14.4932 6.8623 14.4268 6.72949 14.2939C6.59668 14.1556 6.53027 13.9924 6.53027 13.8042C6.53027 13.616 6.59668 13.4556 6.72949 13.3228L9.03711 11.0151L6.72949 8.71582C6.59668 8.57747 6.53027 8.41699 6.53027 8.23438C6.53027 8.04069 6.59668 7.88021 6.72949 7.75293C6.8623 7.62012 7.02279 7.55371 7.21094 7.55371C7.39355 7.55371 7.55404 7.61735 7.69238 7.74463L10.0083 10.0522L12.3408 7.73633C12.4736 7.60352 12.6313 7.53711 12.814 7.53711C13.0021 7.53711 13.1626 7.60352 13.2954 7.73633C13.4282 7.86914 13.4946 8.02962 13.4946 8.21777C13.4946 8.40592 13.4282 8.56917 13.2954 8.70752L10.9795 11.0151L13.2871 13.3145C13.4199 13.4362 13.4863 13.5994 13.4863 13.8042C13.4863 13.9924 13.4199 14.1556 13.2871 14.2939C13.1543 14.4268 12.991 14.4932 12.7974 14.4932C12.5981 14.4932 12.4349 14.4268 12.3076 14.2939L10.0083 11.9863L7.71729 14.2939C7.57894 14.4268 7.41016 14.4932 7.21094 14.4932Z" fill="#3C3C43" fill-opacity="0.6"/>
</svg>
