<svg width="18" height="18" viewBox="0 0 18 18" fill="none" xmlns="http://www.w3.org/2000/svg">
<path d="M9 17.4736C10.1566 17.4736 11.244 17.2523 12.2622 16.8096C13.286 16.3669 14.188 15.7554 14.9683 14.9751C15.7485 14.1948 16.36 13.2956 16.8027 12.2773C17.2454 11.2536 17.4668 10.1634 17.4668 9.00684C17.4668 7.85026 17.2454 6.76286 16.8027 5.74463C16.36 4.72087 15.7485 3.81885 14.9683 3.03857C14.188 2.2583 13.286 1.64681 12.2622 1.2041C11.2384 0.761393 10.1483 0.540039 8.9917 0.540039C7.83512 0.540039 6.74495 0.761393 5.72119 1.2041C4.70296 1.64681 3.80371 2.2583 3.02344 3.03857C2.2487 3.81885 1.63997 4.72087 1.19727 5.74463C0.754557 6.76286 0.533203 7.85026 0.533203 9.00684C0.533203 10.1634 0.754557 11.2536 1.19727 12.2773C1.63997 13.2956 2.25146 14.1948 3.03174 14.9751C3.81201 15.7554 4.71126 16.3669 5.72949 16.8096C6.75326 17.2523 7.84342 17.4736 9 17.4736ZM6.21094 12.4932C6.02279 12.4932 5.8623 12.4268 5.72949 12.2939C5.59668 12.1556 5.53027 11.9924 5.53027 11.8042C5.53027 11.616 5.59668 11.4556 5.72949 11.3228L8.03711 9.01514L5.72949 6.71582C5.59668 6.57747 5.53027 6.41699 5.53027 6.23438C5.53027 6.04069 5.59668 5.88021 5.72949 5.75293C5.8623 5.62012 6.02279 5.55371 6.21094 5.55371C6.39355 5.55371 6.55404 5.61735 6.69238 5.74463L9.0083 8.05225L11.3408 5.73633C11.4736 5.60352 11.6313 5.53711 11.814 5.53711C12.0021 5.53711 12.1626 5.60352 12.2954 5.73633C12.4282 5.86914 12.4946 6.02962 12.4946 6.21777C12.4946 6.40592 12.4282 6.56917 12.2954 6.70752L9.97949 9.01514L12.2871 11.3145C12.4199 11.4362 12.4863 11.5994 12.4863 11.8042C12.4863 11.9924 12.4199 12.1556 12.2871 12.2939C12.1543 12.4268 11.991 12.4932 11.7974 12.4932C11.5981 12.4932 11.4349 12.4268 11.3076 12.2939L9.0083 9.98633L6.71729 12.2939C6.57894 12.4268 6.41016 12.4932 6.21094 12.4932Z" fill="#EBEBF5" fill-opacity="0.6"/>
</svg>
